<svg width="135" height="35" viewBox="0 0 135 35" fill="none" xmlns="http://www.w3.org/2000/svg">
<path d="M7.74316 34.3155V30.9915C8.85468 33.1423 11.851 34.902 14.8956 34.902C21.6613 34.902 26.2524 29.5739 26.2524 22.5349C26.2524 15.4959 21.6613 10.1678 14.8956 10.1678C11.8026 10.1678 8.903 12.0253 7.74316 14.1272V0.0981445H0.349121V34.3155H7.74316ZM13.3491 28.5474C10.0145 28.5474 7.74316 25.81 7.74316 22.5349C7.74316 19.3087 10.0145 16.5225 13.3491 16.5225C16.587 16.5225 18.8584 19.3087 18.8584 22.5349C18.8584 25.81 16.587 28.5474 13.3491 28.5474Z" fill="#4C4C4C"/>
<path d="M40.157 28.5474C36.8708 28.5474 34.5994 25.81 34.5994 22.5349C34.5994 19.3087 36.8708 16.5225 40.157 16.5225C43.4432 16.5225 45.7146 19.3087 45.7146 22.5349C45.7146 25.81 43.4432 28.5474 40.157 28.5474ZM53.1086 10.7544H45.7146V14.1272C44.5548 12.0253 41.7035 10.1678 38.6105 10.1678C31.8447 10.1678 27.2537 15.4959 27.2537 22.5349C27.2537 29.5739 31.8447 34.902 38.6105 34.902C41.6551 34.902 44.6031 33.1423 45.7146 30.9915V34.3155H53.1086V10.7544Z" fill="#4C4C4C"/>
<path d="M55.9969 10.7544V34.3155H63.391V22.486C63.391 18.8199 64.8408 16.5225 67.8854 16.5225C70.9783 16.5225 71.9932 18.8688 71.9932 22.2416V34.3155H79.3872V20.3352C79.3872 16.9624 79.0489 14.6649 77.5508 12.8563C76.246 11.1454 74.0712 10.1678 71.0266 10.1678C67.3538 10.1678 64.6958 11.6343 63.391 14.1761V10.7544H55.9969Z" fill="#4C4C4C"/>
<path d="M93.9057 28.5474C90.6195 28.5474 88.3481 25.81 88.3481 22.5349C88.3481 19.3087 90.6195 16.5225 93.9057 16.5225C97.1919 16.5225 99.4633 19.3087 99.4633 22.5349C99.4633 25.81 97.1919 28.5474 93.9057 28.5474ZM99.4633 30.9915V34.3155H106.857V0.0981445H99.4633V14.1272C98.3035 12.0253 95.4522 10.1678 92.3592 10.1678C85.5935 10.1678 81.0024 15.4959 81.0024 22.5349C81.0024 29.5739 85.5935 34.902 92.3592 34.902C95.4038 34.902 98.3518 33.1423 99.4633 30.9915Z" fill="#4C4C4C"/>
<path d="M121.199 28.5474C117.913 28.5474 115.642 25.81 115.642 22.5349C115.642 19.3087 117.913 16.5225 121.199 16.5225C124.485 16.5225 126.757 19.3087 126.757 22.5349C126.757 25.81 124.485 28.5474 121.199 28.5474ZM134.151 10.7544H126.757V14.1272C125.597 12.0253 122.746 10.1678 119.653 10.1678C112.887 10.1678 108.296 15.4959 108.296 22.5349C108.296 29.5739 112.887 34.902 119.653 34.902C122.697 34.902 125.645 33.1423 126.757 30.9915V34.3155H134.151V10.7544Z" fill="#4C4C4C"/>
</svg>
