<svg width="42" height="42" viewBox="0 0 42 42" fill="none" xmlns="http://www.w3.org/2000/svg">
<path d="M41.617 21.1275C41.617 32.4435 32.4436 41.6169 21.1277 41.6169C9.8117 41.6169 0.638306 32.4435 0.638306 21.1275C0.638306 9.81158 9.8117 0.638184 21.1277 0.638184C32.4436 0.638184 41.617 9.81158 41.617 21.1275Z" fill="#090D1A"/>
<path d="M19.9893 23.4043H22.2659V13.1596H24.5425L21.1276 8.60638L17.7128 13.1596H19.9893V23.4043ZM29.0957 16.5745H25.6808V18.8511H27.9574V29.0957H14.2979V18.8511H16.5745V16.5745H13.1596C12.8577 16.5745 12.5681 16.6944 12.3547 16.9079C12.1412 17.1213 12.0213 17.4109 12.0213 17.7128V30.234C12.0213 30.5359 12.1412 30.8255 12.3547 31.0389C12.5681 31.2524 12.8577 31.3723 13.1596 31.3723H29.0957C29.3976 31.3723 29.6872 31.2524 29.9006 31.0389C30.1141 30.8255 30.234 30.5359 30.234 30.234V17.7128C30.234 17.4109 30.1141 17.1213 29.9006 16.9079C29.6872 16.6944 29.3976 16.5745 29.0957 16.5745Z" fill="#EDEEEE"/>
</svg>
