<svg width="61" height="61" viewBox="0 0 61 61" fill="none" xmlns="http://www.w3.org/2000/svg">
<rect x="0.560059" y="0.617188" width="59.9294" height="59.9294" rx="16.647" fill="white"/>
<path d="M27.0336 39.1439L25.4324 40.7353C24.7616 41.3955 23.8581 41.7656 22.9168 41.7656C21.9756 41.7656 21.0721 41.3955 20.4013 40.7353C20.0743 40.4114 19.8146 40.0259 19.6374 39.6011C19.4603 39.1762 19.369 38.7205 19.369 38.2602C19.369 37.7999 19.4603 37.3442 19.6374 36.9194C19.8146 36.4945 20.0743 36.1091 20.4013 35.7852L26.2923 29.9435C27.512 28.7317 29.8091 26.9486 31.4834 28.6091C31.6636 28.8013 31.8807 28.9551 32.1216 29.0616C32.3626 29.168 32.6225 29.2247 32.8859 29.2285C33.1493 29.2323 33.4107 29.1829 33.6546 29.0834C33.8985 28.9839 34.1198 28.8363 34.3054 28.6494C34.491 28.4624 34.6371 28.24 34.7348 27.9955C34.8326 27.7509 34.8801 27.4891 34.8744 27.2257C34.8688 26.9624 34.8102 26.7028 34.702 26.4626C34.5939 26.2225 34.4385 26.0065 34.2451 25.8277C31.4024 23.0047 27.1957 23.5266 23.5326 27.1621L17.6417 33.0057C16.9456 33.6919 16.3934 34.5101 16.0173 35.4123C15.6412 36.3146 15.4488 37.2827 15.4513 38.2602C15.4489 39.2377 15.6413 40.2058 16.0174 41.108C16.3935 42.0102 16.9457 42.8284 17.6417 43.5147C19.0446 44.9063 20.9418 45.6854 22.9178 45.6814C24.8294 45.6814 26.741 44.9598 28.194 43.5147L29.7972 41.9233C29.98 41.7425 30.1254 41.5274 30.2248 41.2903C30.3243 41.0532 30.376 40.7987 30.3769 40.5416C30.3779 40.2845 30.328 40.0297 30.2302 39.7918C30.1324 39.554 29.9886 39.3378 29.8071 39.1557C29.4401 38.7878 28.9425 38.58 28.4228 38.5778C27.9031 38.5755 27.4037 38.7791 27.0336 39.1439ZM44.8884 16.4415C41.8302 13.409 37.5563 13.2449 34.7294 16.0521L32.7348 18.0329C32.3662 18.3989 32.1581 18.8962 32.1562 19.4156C32.1544 19.935 32.3589 20.4339 32.7249 20.8025C33.0908 21.1711 33.5882 21.3792 34.1076 21.381C34.627 21.3829 35.1259 21.1783 35.4944 20.8124L37.491 18.8335C38.9539 17.3786 40.8734 17.9815 42.1287 19.223C42.7929 19.8852 43.1606 20.763 43.1606 21.698C43.1606 22.6331 42.7929 23.5108 42.1287 24.1711L35.8424 30.4061C32.968 33.2548 31.6198 31.9204 31.0446 31.3491C30.8621 31.1679 30.6457 31.0244 30.4077 30.9268C30.1698 30.8293 29.9149 30.7795 29.6578 30.7804C29.4006 30.7813 29.1461 30.8329 28.9089 30.9322C28.6716 31.0314 28.4562 31.1765 28.275 31.359C28.0938 31.5415 27.9504 31.7579 27.8528 31.9958C27.7552 32.2338 27.7055 32.4886 27.7064 32.7458C27.7073 33.003 27.7589 33.2575 27.8581 33.4947C27.9574 33.732 28.1024 33.9474 28.2849 34.1286C29.6055 35.4372 31.1118 36.0857 32.6893 36.0857C34.6207 36.0857 36.6628 35.113 38.606 33.1856L44.8923 26.9525C45.5869 26.2652 46.138 25.4468 46.5136 24.5448C46.8893 23.6428 47.082 22.6751 47.0807 21.698C47.0824 20.7202 46.8895 19.7518 46.5131 18.8493C46.1367 17.9468 45.5844 17.1283 44.8884 16.4415Z" fill="#090D1A"/>
</svg>
