<svg width="63" height="61" viewBox="0 0 63 61" fill="none" xmlns="http://www.w3.org/2000/svg">
<g clip-path="url(#clip0_624_2494)">
<path fill-rule="evenodd" clip-rule="evenodd" d="M1.79126 30.8411C1.79126 45.784 12.644 58.2097 26.838 60.7294V39.0214H19.324V30.6733H26.838V23.9933C26.838 16.4793 31.6796 12.3065 38.5274 12.3065C40.6964 12.3065 43.0358 12.6396 45.2048 12.9728V20.6546H41.3652C37.6908 20.6546 36.8567 22.4905 36.8567 24.8299V30.6733H44.8717L43.5367 39.0214H36.8567V60.7294C51.0507 58.2097 61.9035 45.7865 61.9035 30.8411C61.9035 14.2176 48.3783 0.617188 31.8474 0.617188C15.3165 0.617188 1.79126 14.2176 1.79126 30.8411Z" fill="white"/>
</g>
<defs>
<clipPath id="clip0_624_2494">
<rect width="62" height="60" fill="white" transform="translate(0.0914307 0.617188)"/>
</clipPath>
</defs>
</svg>
