<svg width="41" height="41" viewBox="0 0 41 41" fill="none" xmlns="http://www.w3.org/2000/svg">
<path d="M20.2297 13.7653C16.5995 13.7653 13.637 16.7278 13.637 20.358C13.637 23.9882 16.5995 26.9507 20.2297 26.9507C23.8598 26.9507 26.8223 23.9882 26.8223 20.358C26.8223 16.7278 23.8598 13.7653 20.2297 13.7653ZM40.0028 20.358C40.0028 17.628 40.0275 14.9226 39.8742 12.1975C39.7209 9.03224 38.9988 6.22306 36.6842 3.90845C34.3646 1.58889 31.5604 0.871758 28.3951 0.718439C25.665 0.565121 22.9597 0.58985 20.2346 0.58985C17.5045 0.58985 14.7992 0.565121 12.0741 0.718439C8.90883 0.871758 6.09965 1.59384 3.78504 3.90845C1.46548 6.228 0.748345 9.03224 0.595026 12.1975C0.441708 14.9276 0.466437 17.6329 0.466437 20.358C0.466437 23.0831 0.441708 25.7934 0.595026 28.5185C0.748345 31.6838 1.47042 34.493 3.78504 36.8076C6.10459 39.1271 8.90883 39.8443 12.0741 39.9976C14.8042 40.1509 17.5095 40.1262 20.2346 40.1262C22.9647 40.1262 25.67 40.1509 28.3951 39.9976C31.5604 39.8443 34.3696 39.1222 36.6842 36.8076C39.0037 34.488 39.7209 31.6838 39.8742 28.5185C40.0324 25.7934 40.0028 23.0881 40.0028 20.358ZM20.2297 30.5017C14.6162 30.5017 10.0859 25.9714 10.0859 20.358C10.0859 14.7446 14.6162 10.2143 20.2297 10.2143C25.8431 10.2143 30.3734 14.7446 30.3734 20.358C30.3734 25.9714 25.8431 30.5017 20.2297 30.5017ZM30.7888 12.1678C29.4782 12.1678 28.4198 11.1095 28.4198 9.79884C28.4198 8.48821 29.4782 7.42982 30.7888 7.42982C32.0995 7.42982 33.1578 8.48821 33.1578 9.79884C33.1582 10.11 33.0972 10.4183 32.9783 10.7059C32.8594 10.9935 32.6849 11.2548 32.4648 11.4749C32.2448 11.6949 31.9835 11.8694 31.6959 11.9883C31.4083 12.1072 31.1 12.1682 30.7888 12.1678Z" fill="#090D1A"/>
</svg>
