<svg width="61" height="61" viewBox="0 0 61 61" fill="none" xmlns="http://www.w3.org/2000/svg">
<path d="M30.5666 0.617188C13.9687 0.617188 0.510498 14.0754 0.510498 30.6733C0.510498 47.2713 13.9687 60.7294 30.5666 60.7294C47.1646 60.7294 60.6227 47.2713 60.6227 30.6733C60.6227 14.0754 47.1646 0.617188 30.5666 0.617188ZM45.011 23.2733C45.0311 23.5887 45.0311 23.9174 45.0311 24.2394C45.0311 34.0882 37.5305 45.433 23.8241 45.433C19.5975 45.433 15.6794 44.2053 12.3786 42.092C12.9824 42.159 13.5594 42.1859 14.1766 42.1859C17.6653 42.1859 20.8722 41.0051 23.4283 39.0058C20.1543 38.9387 17.4037 36.7919 16.4644 33.8399C17.6116 34.0077 18.6448 34.0077 19.8256 33.7058C18.1398 33.3633 16.6246 32.4477 15.5373 31.1146C14.4501 29.7816 13.8579 28.1132 13.8613 26.393V26.2991C14.8475 26.8559 16.0082 27.1981 17.2225 27.245C16.2017 26.5647 15.3645 25.643 14.7852 24.5617C14.2059 23.4803 13.9024 22.2727 13.9016 21.046C13.9016 19.6572 14.2639 18.3892 14.9146 17.2889C16.7858 19.5924 19.1207 21.4763 21.7676 22.8182C24.4145 24.1602 27.3142 24.9301 30.2781 25.078C29.2248 20.0128 33.0087 15.9136 37.5574 15.9136C39.7042 15.9136 41.6364 16.8126 42.9983 18.2617C44.6823 17.9464 46.2924 17.3158 47.7281 16.4705C47.1713 18.1947 46.0039 19.6505 44.4542 20.5696C45.957 20.4086 47.4061 19.9927 48.7479 19.409C47.7348 20.8984 46.4669 22.22 45.011 23.2733Z" fill="white"/>
</svg>
